<?xml version="1.0" standalone="no"?>
<!DOCTYPE svg PUBLIC "-//W3C//DTD SVG 20010904//EN"
 "http://www.w3.org/TR/2001/REC-SVG-20010904/DTD/svg10.dtd">
<svg version="1.0" xmlns="http://www.w3.org/2000/svg"
 width="3000.000000pt" height="962.000000pt" viewBox="0 0 3000.000000 962.000000"
 preserveAspectRatio="xMidYMid meet">

<g transform="translate(0.000000,962.000000) scale(0.100000,-0.100000)"
fill="#000000" stroke="none">
<path d="M8330 8999 c-119 -11 -219 -41 -257 -76 -22 -21 -33 -44 -41 -88 -13
-64 -55 -147 -91 -180 -19 -16 -24 -17 -31 -5 -6 8 -10 23 -10 33 0 10 -7 20
-15 24 -21 8 -55 -25 -55 -53 0 -52 -23 -72 -34 -29 -9 34 -48 52 -80 37 -52
-23 -56 -43 -87 -379 -15 -175 -33 -365 -40 -423 -15 -130 -15 -549 0 -770 38
-586 50 -892 61 -1605 13 -815 27 -1129 71 -1605 34 -367 59 -585 74 -646 36
-138 120 -254 185 -254 17 0 53 11 80 25 65 33 80 32 120 -10 18 -19 58 -45
87 -57 39 -16 55 -28 58 -45 17 -83 16 -82 32 -35 29 84 91 92 123 17 25 -57
36 -62 50 -20 20 60 56 95 98 95 42 0 130 -38 173 -75 33 -27 48 -25 68 8 7
12 42 61 77 108 36 48 85 131 110 185 50 106 124 316 124 351 0 12 5 25 12 29
8 5 9 -25 4 -123 -10 -188 14 -236 53 -110 29 96 46 408 86 1642 46 1425 55
1589 91 1698 9 27 26 55 39 63 16 10 87 22 212 35 103 10 283 35 398 54 226
37 342 49 615 65 96 6 278 17 404 26 125 8 230 13 233 10 3 -3 13 -110 23
-238 105 -1346 -8 -2314 -346 -2966 -72 -139 -136 -233 -252 -372 -441 -528
-1226 -932 -2232 -1150 -554 -120 -612 -138 -797 -248 -108 -63 -130 -82 -99
-82 31 0 191 -52 218 -71 42 -31 38 -65 -9 -78 -21 -6 -56 -11 -78 -11 -44 0
-84 -17 -96 -40 -4 -8 -16 -32 -25 -53 -17 -39 -57 -67 -94 -67 -26 0 -26 -12
0 -28 63 -39 33 -142 -41 -142 -34 0 -5 -27 44 -42 22 -7 55 -26 73 -44 30
-28 34 -37 34 -82 0 -43 -5 -57 -31 -86 -17 -19 -46 -45 -65 -56 -19 -12 -34
-28 -34 -36 0 -46 452 -162 770 -199 242 -27 610 -15 760 25 48 13 63 7 34
-15 -40 -30 -372 -86 -591 -100 -62 -4 -113 -11 -113 -15 0 -26 410 -33 605
-11 502 57 1136 243 1680 493 1037 478 1808 1382 2189 2568 156 485 239 937
296 1620 46 563 138 2380 156 3115 8 297 10 287 -83 337 -113 62 -302 98 -623
118 -378 23 -603 3 -700 -63 -35 -23 -45 -42 -55 -111 -8 -46 -44 -86 -81 -86
-14 0 -44 10 -66 22 -33 19 -40 20 -48 8 -6 -8 -10 -23 -10 -34 0 -15 -5 -17
-34 -12 -29 6 -41 1 -79 -28 -79 -60 -87 -61 -562 -59 -236 1 -663 8 -947 15
-433 11 -520 16 -532 28 -9 8 -20 46 -25 84 -9 60 -15 74 -47 107 -100 102
-376 163 -789 173 -110 2 -243 0 -295 -5z m-425 -642 c8 -41 -12 -99 -25 -77
-6 8 -10 32 -10 52 0 71 24 88 35 25z m-38 -241 c6 -50 -2 -96 -17 -96 -6 0
-10 35 -10 82 0 60 3 79 11 71 6 -6 14 -32 16 -57z"/>
<path d="M24455 8994 c-22 -2 -121 -11 -220 -20 -882 -77 -1734 -437 -2420
-1021 -896 -763 -1444 -1853 -1525 -3033 -57 -845 139 -1694 568 -2450 329
-581 819 -1103 1387 -1476 1185 -780 2668 -934 3995 -417 240 94 578 269 793
410 814 536 1423 1320 1737 2239 334 977 310 2036 -67 3004 -94 239 -269 578
-410 793 -730 1109 -1913 1823 -3238 1952 -157 16 -521 27 -600 19z"/>
<path d="M15207 8970 c-60 -5 -236 -25 -390 -44 -379 -47 -471 -55 -752 -65
-132 -5 -248 -12 -257 -16 -12 -5 -17 -17 -16 -40 1 -23 -7 -43 -25 -65 -32
-37 -51 -100 -71 -230 -64 -413 -39 -916 52 -1030 38 -47 112 -85 201 -104 99
-20 105 -29 42 -60 l-51 -26 46 -44 46 -44 -4 -63 -3 -63 41 -8 c46 -10 64
-36 64 -91 0 -52 48 -322 80 -447 74 -291 129 -709 159 -1195 64 -1025 -48
-2181 -350 -3615 -65 -309 -79 -427 -60 -534 18 -101 48 -176 72 -176 10 0 19
6 19 13 0 28 134 128 149 111 4 -5 13 -49 19 -97 18 -140 93 -260 143 -229 17
11 22 8 39 -20 11 -18 22 -45 26 -61 9 -44 31 -44 72 0 42 46 70 57 117 49 59
-11 106 -83 117 -178 3 -27 3 -27 93 41 105 79 191 168 287 298 144 195 223
342 278 523 37 118 55 160 72 160 7 0 9 -18 5 -55 -5 -51 -36 -146 -142 -443
-20 -56 -35 -115 -33 -130 3 -21 22 10 95 158 110 225 177 390 198 490 8 41
34 112 56 158 43 87 62 156 164 611 30 134 56 246 58 248 2 2 125 42 272 89
316 101 462 157 680 263 546 265 1052 674 1508 1220 624 745 999 1506 1274
2581 74 294 177 658 200 710 11 24 15 66 15 135 0 59 5 112 12 130 8 17 41 62
75 100 78 88 78 94 9 109 -45 10 -37 46 22 99 28 25 50 47 50 50 0 3 -17 7
-37 9 -56 5 -65 31 -53 154 22 224 10 304 -45 304 -26 0 -55 24 -55 45 0 7
-26 29 -57 48 -131 79 -286 129 -456 148 -56 6 -720 14 -1682 19 -1728 9
-1935 15 -1935 59 0 5 -19 17 -42 26 -52 21 -249 28 -411 15z m2543 -1784 c0
-52 -66 -465 -92 -571 -149 -621 -559 -1335 -977 -1702 -163 -143 -480 -366
-566 -399 -13 -5 -15 72 -15 627 0 615 -10 1003 -30 1219 -20 209 -38 586 -30
634 15 100 -13 95 875 156 822 57 835 58 835 36z"/>
<path d="M5165 8854 c-273 -8 -683 -27 -1060 -49 -902 -53 -1508 -52 -2042 5
-120 13 -232 13 -271 -1 -16 -6 -54 -38 -83 -71 -72 -82 -96 -91 -243 -87
l-120 4 -78 -260 c-160 -535 -219 -830 -248 -1255 -41 -597 -38 -2044 5 -2517
70 -770 257 -1594 479 -2113 287 -669 764 -1176 1340 -1425 220 -95 569 -194
801 -227 117 -16 546 -16 690 0 287 33 534 106 790 231 258 127 472 279 675
482 233 233 422 502 590 839 173 347 284 675 401 1192 l54 238 144 0 144 0 -7
147 c-4 82 -14 225 -21 318 -22 256 -74 1210 -75 1369 0 11 -1062 1 -1325 -14
-110 -5 -441 -24 -735 -40 -294 -16 -647 -34 -785 -40 -137 -5 -290 -12 -340
-14 -108 -4 -141 -17 -156 -63 -12 -39 -25 -46 -139 -88 -67 -24 -86 -35 -88
-51 -4 -29 -34 -55 -144 -128 -93 -61 -116 -92 -89 -119 6 -6 11 -27 11 -47 0
-34 -20 -76 -87 -185 -45 -72 -47 -86 -18 -129 39 -58 34 -82 -37 -164 -53
-62 -30 -116 82 -192 62 -42 70 -54 70 -106 0 -27 9 -44 43 -78 74 -73 171
-97 487 -116 495 -30 655 -44 665 -60 5 -8 -26 -13 -210 -35 -66 -8 -122 -15
-125 -16 -3 0 49 -11 115 -24 66 -12 137 -30 159 -39 l39 -16 -28 -25 c-31
-29 -23 -48 23 -59 15 -4 182 -10 372 -15 219 -6 357 -14 378 -21 65 -24 52
-90 -71 -350 -261 -553 -489 -806 -804 -892 -113 -31 -345 -30 -495 0 -402 83
-609 278 -756 712 -87 256 -174 694 -201 1015 -33 378 -39 1455 -11 1925 11
192 70 873 76 879 4 5 726 -15 1244 -34 638 -24 1822 -55 2080 -55 248 0 405
12 449 33 19 9 27 22 32 50 3 22 15 44 28 53 11 8 27 27 35 42 57 112 99 601
77 902 -22 297 -36 320 -253 398 -56 20 -103 42 -105 49 -3 7 14 21 36 33 23
11 41 24 41 29 0 5 -24 17 -52 26 -29 10 -61 24 -71 33 -16 14 -16 16 5 26 32
16 44 62 24 85 -34 38 -219 72 -481 90 -164 11 -655 20 -830 15z m819 -243 c3
-5 -1 -12 -10 -15 -36 -14 -159 -2 -148 15 7 12 151 12 158 0z m333 -48 c5
-14 -80 -21 -152 -12 -47 5 -48 6 -25 17 32 14 172 11 177 -5z m-1402 -4523
c3 -5 -6 -12 -20 -16 -31 -8 -95 3 -95 16 0 13 107 13 115 0z"/>
<path d="M3544 4039 c-10 -17 17 -30 50 -24 35 6 40 10 31 24 -8 14 -72 14
-81 0z"/>
</g>
</svg>
